{
  "asset": {
    "generator": "glTF-Transform v4.2.1",
    "version": "2.0"
  },
  "accessors": [
    {
      "type": "VEC3",
      "componentType": 5126,
      "count": 29759,
      "max": [
        0.30000001192092896,
        0.3799999952316284,
        0.20509999990463257
      ],
      "min": [
        -0.30000001192092896,
        -0.3799999952316284,
        0
      ],
      "bufferView": 0,
      "byteOffset": 0
    },
    {
      "type": "VEC3",
      "componentType": 5126,
      "count": 29759,
      "bufferView": 0,
      "byteOffset": 12
    },
    {
      "type": "SCALAR",
      "componentType": 5125,
      "count": 120378,
      "bufferView": 1,
      "byteOffset": 0
    },
    {
      "type": "SCALAR",
      "componentType": 5125,
      "count": 4020,
      "bufferView": 1,
      "byteOffset": 481512
    },
    {
      "type": "SCALAR",
      "componentType": 5125,
      "count": 5337,
      "bufferView": 1,
      "byteOffset": 497592
    },
    {
      "type": "SCALAR",
      "componentType": 5125,
      "count": 9336,
      "bufferView": 1,
      "byteOffset": 518940
    },
    {
      "type": "SCALAR",
      "componentType": 5125,
      "count": 30930,
      "bufferView": 1,
      "byteOffset": 556284
    },
    {
      "type": "SCALAR",
      "componentType": 5125,
      "count": 10236,
      "bufferView": 1,
      "byteOffset": 680004
    },
    {
      "type": "SCALAR",
      "componentType": 5125,
      "count": 5154,
      "bufferView": 1,
      "byteOffset": 720948
    },
    {
      "type": "SCALAR",
      "componentType": 5125,
      "count": 10236,
      "bufferView": 1,
      "byteOffset": 741564
    },
    {
      "type": "SCALAR",
      "componentType": 5125,
      "count": 5154,
      "bufferView": 1,
      "byteOffset": 782508
    },
    {
      "type": "SCALAR",
      "componentType": 5125,
      "count": 8532,
      "bufferView": 1,
      "byteOffset": 803124
    },
    {
      "type": "SCALAR",
      "componentType": 5125,
      "count": 2736,
      "bufferView": 1,
      "byteOffset": 837252
    },
    {
      "type": "SCALAR",
      "componentType": 5125,
      "count": 9336,
      "bufferView": 1,
      "byteOffset": 848196
    },
    {
      "type": "SCALAR",
      "componentType": 5125,
      "count": 2736,
      "bufferView": 1,
      "byteOffset": 885540
    },
    {
      "type": "SCALAR",
      "componentType": 5125,
      "count": 2160,
      "bufferView": 1,
      "byteOffset": 896484
    },
    {
      "type": "SCALAR",
      "componentType": 5125,
      "count": 2160,
      "bufferView": 1,
      "byteOffset": 905124
    },
    {
      "type": "VEC3",
      "componentType": 5126,
      "count": 1480,
      "max": [
        0.2750000059604645,
        0.3675000071525574,
        0.017999999225139618
      ],
      "min": [
        -0.2750000059604645,
        -0.3675000071525574,
        0.01549999974668026
      ],
      "bufferView": 2,
      "byteOffset": 0
    },
    {
      "type": "VEC3",
      "componentType": 5126,
      "count": 1480,
      "bufferView": 2,
      "byteOffset": 12
    },
    {
      "type": "VEC3",
      "componentType": 5126,
      "count": 1489,
      "max": [
        0.2337494045495987,
        -0.3461152911186218,
        0.04475000128149986
      ],
      "min": [
        0.21585002541542053,
        -0.36388471722602844,
        0.010950000025331974
      ],
      "bufferView": 3,
      "byteOffset": 0
    },
    {
      "type": "VEC3",
      "componentType": 5126,
      "count": 1489,
      "bufferView": 3,
      "byteOffset": 12
    },
    {
      "type": "VEC3",
      "componentType": 5126,
      "count": 2568,
      "max": [
        0.29524946212768555,
        -0.28529998660087585,
        0.20336242020130157
      ],
      "min": [
        0.27950000762939453,
        -0.3513000011444092,
        0.19259999692440033
      ],
      "bufferView": 4,
      "byteOffset": 0
    },
    {
      "type": "VEC3",
      "componentType": 5126,
      "count": 2568,
      "bufferView": 4,
      "byteOffset": 12
    },
    {
      "type": "VEC3",
      "componentType": 5126,
      "count": 7900,
      "max": [
        0.29820001125335693,
        0.3774999976158142,
        0.20999999344348907
      ],
      "min": [
        -0.29679998755455017,
        -0.3774999976158142,
        0.1914999932050705
      ],
      "bufferView": 5,
      "byteOffset": 0
    },
    {
      "type": "VEC3",
      "componentType": 5126,
      "count": 7900,
      "bufferView": 5,
      "byteOffset": 12
    },
    {
      "type": "VEC3",
      "componentType": 5126,
      "count": 3121,
      "max": [
        -0.2316499948501587,
        0.3075000047683716,
        0.21699999272823334
      ],
      "min": [
        -0.2872999906539917,
        0.2524000108242035,
        0.16985000669956207
      ],
      "bufferView": 6,
      "byteOffset": 0
    },
    {
      "type": "VEC3",
      "componentType": 5126,
      "count": 3121,
      "bufferView": 6,
      "byteOffset": 12
    },
    {
      "type": "VEC3",
      "componentType": 5126,
      "count": 1403,
      "max": [
        -0.24130000174045563,
        0.2878916561603546,
        0.21594999730587006
      ],
      "min": [
        -0.2572999894618988,
        0.27200832962989807,
        0.18895000219345093
      ],
      "bufferView": 7,
      "byteOffset": 0
    },
    {
      "type": "VEC3",
      "componentType": 5126,
      "count": 1403,
      "bufferView": 7,
      "byteOffset": 12
    },
    {
      "type": "VEC3",
      "componentType": 5126,
      "count": 3121,
      "max": [
        -0.2316499948501587,
        -0.2524999976158142,
        0.21699999272823334
      ],
      "min": [
        -0.2872999906539917,
        -0.3075999915599823,
        0.16985000669956207
      ],
      "bufferView": 8,
      "byteOffset": 0
    },
    {
      "type": "VEC3",
      "componentType": 5126,
      "count": 3121,
      "bufferView": 8,
      "byteOffset": 12
    },
    {
      "type": "VEC3",
      "componentType": 5126,
      "count": 1403,
      "max": [
        -0.24130000174045563,
        -0.2721083164215088,
        0.21594999730587006
      ],
      "min": [
        -0.2572999894618988,
        -0.2879916727542877,
        0.18895000219345093
      ],
      "bufferView": 9,
      "byteOffset": 0
    },
    {
      "type": "VEC3",
      "componentType": 5126,
      "count": 1403,
      "bufferView": 9,
      "byteOffset": 12
    },
    {
      "type": "VEC3",
      "componentType": 5126,
      "count": 2625,
      "max": [
        -0.25029999017715454,
        -0.32249999046325684,
        0.20800000429153442
      ],
      "min": [
        -0.27379998564720154,
        -0.3571000099182129,
        0.19300000369548798
      ],
      "bufferView": 10,
      "byteOffset": 0
    },
    {
      "type": "VEC3",
      "componentType": 5126,
      "count": 2625,
      "bufferView": 10,
      "byteOffset": 12
    },
    {
      "type": "VEC3",
      "componentType": 5126,
      "count": 1046,
      "max": [
        0.2973000109195709,
        -0.29899999499320984,
        0.20614999532699585
      ],
      "min": [
        0.2935999929904938,
        -0.335999995470047,
        0.19130000472068787
      ],
      "bufferView": 11,
      "byteOffset": 0
    },
    {
      "type": "VEC3",
      "componentType": 5126,
      "count": 1046,
      "bufferView": 11,
      "byteOffset": 12
    },
    {
      "type": "VEC3",
      "componentType": 5126,
      "count": 2568,
      "max": [
        0.29524946212768555,
        0.349700003862381,
        0.20336242020130157
      ],
      "min": [
        0.27950000762939453,
        0.28369998931884766,
        0.19259999692440033
      ],
      "bufferView": 12,
      "byteOffset": 0
    },
    {
      "type": "VEC3",
      "componentType": 5126,
      "count": 2568,
      "bufferView": 12,
      "byteOffset": 12
    },
    {
      "type": "VEC3",
      "componentType": 5126,
      "count": 1046,
      "max": [
        0.2973000109195709,
        0.335999995470047,
        0.20614999532699585
      ],
      "min": [
        0.2935999929904938,
        0.29899999499320984,
        0.19130000472068787
      ],
      "bufferView": 13,
      "byteOffset": 0
    },
    {
      "type": "VEC3",
      "componentType": 5126,
      "count": 1046,
      "bufferView": 13,
      "byteOffset": 12
    },
    {
      "type": "VEC3",
      "componentType": 5126,
      "count": 816,
      "max": [
        0.26499998569488525,
        -0.351500004529953,
        0.026499999687075615
      ],
      "min": [
        0.23499999940395355,
        -0.3785000145435333,
        0.0024999999441206455
      ],
      "bufferView": 14,
      "byteOffset": 0
    },
    {
      "type": "VEC3",
      "componentType": 5126,
      "count": 816,
      "bufferView": 14,
      "byteOffset": 12
    },
    {
      "type": "VEC3",
      "componentType": 5126,
      "count": 816,
      "max": [
        -0.23499999940395355,
        -0.351500004529953,
        0.026499999687075615
      ],
      "min": [
        -0.26499998569488525,
        -0.3785000145435333,
        0.0024999999441206455
      ],
      "bufferView": 15,
      "byteOffset": 0
    },
    {
      "type": "VEC3",
      "componentType": 5126,
      "count": 816,
      "bufferView": 15,
      "byteOffset": 12
    }
  ],
  "bufferViews": [
    {
      "buffer": 0,
      "byteOffset": 0,
      "byteLength": 714216,
      "byteStride": 24,
      "target": 34962
    },
    {
      "buffer": 0,
      "byteOffset": 714216,
      "byteLength": 913764,
      "target": 34963
    },
    {
      "buffer": 0,
      "byteOffset": 1627980,
      "byteLength": 35520,
      "byteStride": 24,
      "target": 34962
    },
    {
      "buffer": 0,
      "byteOffset": 1663500,
      "byteLength": 35736,
      "byteStride": 24,
      "target": 34962
    },
    {
      "buffer": 0,
      "byteOffset": 1699236,
      "byteLength": 61632,
      "byteStride": 24,
      "target": 34962
    },
    {
      "buffer": 0,
      "byteOffset": 1760868,
      "byteLength": 189600,
      "byteStride": 24,
      "target": 34962
    },
    {
      "buffer": 0,
      "byteOffset": 1950468,
      "byteLength": 74904,
      "byteStride": 24,
      "target": 34962
    },
    {
      "buffer": 0,
      "byteOffset": 2025372,
      "byteLength": 33672,
      "byteStride": 24,
      "target": 34962
    },
    {
      "buffer": 0,
      "byteOffset": 2059044,
      "byteLength": 74904,
      "byteStride": 24,
      "target": 34962
    },
    {
      "buffer": 0,
      "byteOffset": 2133948,
      "byteLength": 33672,
      "byteStride": 24,
      "target": 34962
    },
    {
      "buffer": 0,
      "byteOffset": 2167620,
      "byteLength": 63000,
      "byteStride": 24,
      "target": 34962
    },
    {
      "buffer": 0,
      "byteOffset": 2230620,
      "byteLength": 25104,
      "byteStride": 24,
      "target": 34962
    },
    {
      "buffer": 0,
      "byteOffset": 2255724,
      "byteLength": 61632,
      "byteStride": 24,
      "target": 34962
    },
    {
      "buffer": 0,
      "byteOffset": 2317356,
      "byteLength": 25104,
      "byteStride": 24,
      "target": 34962
    },
    {
      "buffer": 0,
      "byteOffset": 2342460,
      "byteLength": 19584,
      "byteStride": 24,
      "target": 34962
    },
    {
      "buffer": 0,
      "byteOffset": 2362044,
      "byteLength": 19584,
      "byteStride": 24,
      "target": 34962
    }
  ],
  "buffers": [
    {
      "uri": "buffer.bin",
      "byteLength": 2381628
    }
  ],
  "materials": [
    {
      "doubleSided": true,
      "pbrMetallicRoughness": {
        "baseColorFactor": [
          0.6900000028766353,
          0.6900000028766353,
          0.6900000028766353,
          1
        ],
        "metallicFactor": 0
      }
    },
    {
      "doubleSided": true,
      "pbrMetallicRoughness": {
        "baseColorFactor": [
          0.6900000028766353,
          0.6900000028766353,
          0.6900000028766353,
          1
        ],
        "metallicFactor": 0
      }
    },
    {
      "doubleSided": true,
      "pbrMetallicRoughness": {
        "baseColorFactor": [
          0.6900000028766353,
          0.6900000028766353,
          0.6900000028766353,
          1
        ],
        "metallicFactor": 0
      }
    },
    {
      "doubleSided": true,
      "pbrMetallicRoughness": {
        "baseColorFactor": [
          0.6900000028766353,
          0.6900000028766353,
          0.6900000028766353,
          1
        ],
        "metallicFactor": 0
      }
    },
    {
      "doubleSided": true,
      "pbrMetallicRoughness": {
        "baseColorFactor": [
          0.6900000028766353,
          0.6900000028766353,
          0.6900000028766353,
          1
        ],
        "metallicFactor": 0
      }
    },
    {
      "doubleSided": true,
      "pbrMetallicRoughness": {
        "baseColorFactor": [
          0.6900000028766353,
          0.6900000028766353,
          0.6900000028766353,
          1
        ],
        "metallicFactor": 0
      }
    },
    {
      "doubleSided": true,
      "pbrMetallicRoughness": {
        "baseColorFactor": [
          0.6900000028766353,
          0.6900000028766353,
          0.6900000028766353,
          1
        ],
        "metallicFactor": 0
      }
    },
    {
      "doubleSided": true,
      "pbrMetallicRoughness": {
        "baseColorFactor": [
          0.6900000028766353,
          0.6900000028766353,
          0.6900000028766353,
          1
        ],
        "metallicFactor": 0
      }
    },
    {
      "doubleSided": true,
      "pbrMetallicRoughness": {
        "baseColorFactor": [
          0.6900000028766353,
          0.6900000028766353,
          0.6900000028766353,
          1
        ],
        "metallicFactor": 0
      }
    },
    {
      "doubleSided": true,
      "pbrMetallicRoughness": {
        "baseColorFactor": [
          0.6900000028766353,
          0.6900000028766353,
          0.6900000028766353,
          1
        ],
        "metallicFactor": 0
      }
    },
    {
      "doubleSided": true,
      "pbrMetallicRoughness": {
        "baseColorFactor": [
          0.6900000028766353,
          0.6900000028766353,
          0.6900000028766353,
          1
        ],
        "metallicFactor": 0
      }
    },
    {
      "doubleSided": true,
      "pbrMetallicRoughness": {
        "baseColorFactor": [
          0.6900000028766353,
          0.6900000028766353,
          0.6900000028766353,
          1
        ],
        "metallicFactor": 0
      }
    },
    {
      "doubleSided": true,
      "pbrMetallicRoughness": {
        "baseColorFactor": [
          0.6900000028766353,
          0.6900000028766353,
          0.6900000028766353,
          1
        ],
        "metallicFactor": 0
      }
    },
    {
      "doubleSided": true,
      "pbrMetallicRoughness": {
        "baseColorFactor": [
          0.6900000028766353,
          0.6900000028766353,
          0.6900000028766353,
          1
        ],
        "metallicFactor": 0
      }
    },
    {
      "doubleSided": true,
      "pbrMetallicRoughness": {
        "baseColorFactor": [
          0.6900000028766353,
          0.6900000028766353,
          0.6900000028766353,
          1
        ],
        "metallicFactor": 0
      }
    }
  ],
  "meshes": [
    {
      "primitives": [
        {
          "attributes": {
            "POSITION": 0,
            "NORMAL": 1
          },
          "mode": 4,
          "material": 0,
          "indices": 2
        }
      ]
    },
    {
      "primitives": [
        {
          "attributes": {
            "POSITION": 17,
            "NORMAL": 18
          },
          "mode": 4,
          "material": 1,
          "indices": 3
        }
      ]
    },
    {
      "primitives": [
        {
          "attributes": {
            "POSITION": 19,
            "NORMAL": 20
          },
          "mode": 4,
          "material": 2,
          "indices": 4
        }
      ]
    },
    {
      "primitives": [
        {
          "attributes": {
            "POSITION": 21,
            "NORMAL": 22
          },
          "mode": 4,
          "material": 3,
          "indices": 5
        }
      ]
    },
    {
      "primitives": [
        {
          "attributes": {
            "POSITION": 23,
            "NORMAL": 24
          },
          "mode": 4,
          "material": 4,
          "indices": 6
        }
      ]
    },
    {
      "primitives": [
        {
          "attributes": {
            "POSITION": 25,
            "NORMAL": 26
          },
          "mode": 4,
          "material": 5,
          "indices": 7
        }
      ]
    },
    {
      "primitives": [
        {
          "attributes": {
            "POSITION": 27,
            "NORMAL": 28
          },
          "mode": 4,
          "material": 6,
          "indices": 8
        }
      ]
    },
    {
      "primitives": [
        {
          "attributes": {
            "POSITION": 29,
            "NORMAL": 30
          },
          "mode": 4,
          "material": 7,
          "indices": 9
        }
      ]
    },
    {
      "primitives": [
        {
          "attributes": {
            "POSITION": 31,
            "NORMAL": 32
          },
          "mode": 4,
          "material": 8,
          "indices": 10
        }
      ]
    },
    {
      "primitives": [
        {
          "attributes": {
            "POSITION": 33,
            "NORMAL": 34
          },
          "mode": 4,
          "material": 9,
          "indices": 11
        }
      ]
    },
    {
      "primitives": [
        {
          "attributes": {
            "POSITION": 35,
            "NORMAL": 36
          },
          "mode": 4,
          "material": 10,
          "indices": 12
        }
      ]
    },
    {
      "primitives": [
        {
          "attributes": {
            "POSITION": 37,
            "NORMAL": 38
          },
          "mode": 4,
          "material": 11,
          "indices": 13
        }
      ]
    },
    {
      "primitives": [
        {
          "attributes": {
            "POSITION": 39,
            "NORMAL": 40
          },
          "mode": 4,
          "material": 12,
          "indices": 14
        }
      ]
    },
    {
      "primitives": [
        {
          "attributes": {
            "POSITION": 41,
            "NORMAL": 42
          },
          "mode": 4,
          "material": 13,
          "indices": 15
        }
      ]
    },
    {
      "primitives": [
        {
          "attributes": {
            "POSITION": 43,
            "NORMAL": 44
          },
          "mode": 4,
          "material": 14,
          "indices": 16
        }
      ]
    }
  ],
  "nodes": [
    {
      "name": "empty_2",
      "mesh": 0
    },
    {
      "name": "empty_3",
      "mesh": 1
    },
    {
      "name": "empty_4",
      "mesh": 2
    },
    {
      "name": "empty_5",
      "mesh": 3
    },
    {
      "name": "empty_6",
      "mesh": 4
    },
    {
      "name": "empty_7",
      "mesh": 5
    },
    {
      "name": "empty_8",
      "mesh": 6
    },
    {
      "name": "empty_9",
      "mesh": 7
    },
    {
      "name": "empty_10",
      "mesh": 8
    },
    {
      "name": "empty_11",
      "mesh": 9
    },
    {
      "name": "empty_12",
      "mesh": 10
    },
    {
      "name": "empty_13",
      "mesh": 11
    },
    {
      "name": "empty_14",
      "mesh": 12
    },
    {
      "name": "empty_15",
      "mesh": 13
    },
    {
      "name": "empty_16",
      "mesh": 14
    }
  ],
  "scenes": [
    {
      "name": "empty_1",
      "nodes": [
        0,
        1,
        2,
        3,
        4,
        5,
        6,
        7,
        8,
        9,
        10,
        11,
        12,
        13,
        14
      ]
    }
  ],
  "scene": 0
}