{"asset":{"generator":"step-to-gltf","version":"2.0"},"scene":0,"scenes":[{"nodes":[0]}],"nodes":[{"mesh":0,"name":"converted"}],"meshes":[{"name":"converted","primitives":[{"attributes":{"POSITION":0,"NORMAL":1},"indices":2,"material":0,"mode":4}]}],"materials":[{"doubleSided":true,"pbrMetallicRoughness":{"baseColorFactor":[0.69,0.69,0.69,1.0],"metallicFactor":0}}],"accessors":[{"type":"VEC3","componentType":5126,"count":235100,"max":[0.3,0.38,0.21700000000000003],"min":[-0.3,-0.38,0.0],"bufferView":0},{"type":"VEC3","componentType":5126,"count":235100,"bufferView":1},{"type":"SCALAR","componentType":5125,"count":1120797,"bufferView":2}],"bufferViews":[{"buffer":0,"byteOffset":0,"byteLength":2821200},{"buffer":0,"byteOffset":2821200,"byteLength":2821200},{"buffer":0,"byteOffset":5642400,"byteLength":4483188}],"buffers":[{"byteLength":10125588,"uri":"converted.bin"}]}
