{"asset":{"generator":"step-to-gltf","version":"2.0"},"scene":0,"scenes":[{"nodes":[0]}],"nodes":[{"mesh":0,"name":"Hoofdschakelaar"}],"meshes":[{"name":"Hoofdschakelaar","primitives":[{"attributes":{"POSITION":0,"NORMAL":1},"indices":2,"material":0,"mode":4}]}],"materials":[{"doubleSided":true,"pbrMetallicRoughness":{"baseColorFactor":[0.69,0.69,0.69,1.0],"metallicFactor":0}}],"accessors":[{"type":"VEC3","componentType":5126,"count":59524,"max":[0.0325,0.0325,0.11600000000000002],"min":[-0.0325,-0.0325,-0.005],"bufferView":0},{"type":"VEC3","componentType":5126,"count":59524,"bufferView":1},{"type":"SCALAR","componentType":5125,"count":170400,"bufferView":2}],"bufferViews":[{"buffer":0,"byteOffset":0,"byteLength":714288},{"buffer":0,"byteOffset":714288,"byteLength":714288},{"buffer":0,"byteOffset":1428576,"byteLength":681600}],"buffers":[{"byteLength":2110176,"uri":"Hoofdschakelaar.bin"}]}
