{"asset":{"generator":"step-to-gltf","version":"2.0"},"scene":0,"scenes":[{"nodes":[0]}],"nodes":[{"mesh":0,"name":"wago"}],"meshes":[{"name":"wago","primitives":[{"attributes":{"POSITION":0,"NORMAL":1},"indices":2,"material":0,"mode":4},{"attributes":{"POSITION":3,"NORMAL":4},"indices":5,"material":1,"mode":4},{"attributes":{"POSITION":6,"NORMAL":7},"indices":8,"material":2,"mode":4}]}],"materials":[{"doubleSided":true,"pbrMetallicRoughness":{"baseColorFactor":[0.02451501414179802,0.02451501414179802,0.027211783453822136,1.0],"metallicFactor":0}},{"doubleSided":true,"pbrMetallicRoughness":{"baseColorFactor":[0.0,0.22341398894786835,0.4479883909225464,1.0],"metallicFactor":0}},{"doubleSided":true,"pbrMetallicRoughness":{"baseColorFactor":[0.8900054097175598,0.848088264465332,0.7677687406539917,1.0],"metallicFactor":0}}],"accessors":[{"type":"VEC3","componentType":5126,"count":996,"max":[0.07890000000000001,0.02795,0.0318],"min":[0.0621,0.022350000000000002,0.0182],"bufferView":0},{"type":"VEC3","componentType":5126,"count":996,"bufferView":1},{"type":"SCALAR","componentType":5125,"count":2640,"bufferView":2},{"type":"VEC3","componentType":5126,"count":6582,"max":[0.079,0.03655,0.05],"min":[-3.46944695195361e-18,0.0,0.0],"bufferView":3},{"type":"VEC3","componentType":5126,"count":6582,"bufferView":4},{"type":"SCALAR","componentType":5125,"count":18354,"bufferView":5},{"type":"VEC3","componentType":5126,"count":910,"max":[0.0513,0.0465,0.0431],"min":[0.0025,0.03655,0.0155],"bufferView":6},{"type":"VEC3","componentType":5126,"count":910,"bufferView":7},{"type":"SCALAR","componentType":5125,"count":2670,"bufferView":8}],"bufferViews":[{"buffer":0,"byteOffset":0,"byteLength":11952},{"buffer":0,"byteOffset":11952,"byteLength":11952},{"buffer":0,"byteOffset":23904,"byteLength":10560},{"buffer":0,"byteOffset":34464,"byteLength":78984},{"buffer":0,"byteOffset":113448,"byteLength":78984},{"buffer":0,"byteOffset":192432,"byteLength":73416},{"buffer":0,"byteOffset":265848,"byteLength":10920},{"buffer":0,"byteOffset":276768,"byteLength":10920},{"buffer":0,"byteOffset":287688,"byteLength":10680}],"buffers":[{"byteLength":298368,"uri":"wago.bin"}]}
